<?xml version="1.0" encoding="UTF-8" standalone="no"?>
<svg width="1552px" height="1552px" viewBox="0 0 1552 1552" version="1.1" xmlns="http://www.w3.org/2000/svg" xmlns:xlink="http://www.w3.org/1999/xlink">
    <!-- Generator: Sketch 42 (36781) - http://www.bohemiancoding.com/sketch -->
    <title>tree-fig</title>
    <desc>Created with Sketch.</desc>
    <defs>
        <circle id="path-1" cx="746" cy="746" r="746"></circle>
        <filter x="-50%" y="-50%" width="200%" height="200%" filterUnits="objectBoundingBox" id="filter-2">
            <feMorphology radius="29.5" operator="dilate" in="SourceAlpha" result="shadowSpreadOuter1"></feMorphology>
            <feOffset dx="0" dy="2" in="shadowSpreadOuter1" result="shadowOffsetOuter1"></feOffset>
            <feMorphology radius="29.5" operator="erode" in="SourceAlpha" result="shadowInner"></feMorphology>
            <feOffset dx="0" dy="2" in="shadowInner" result="shadowInner"></feOffset>
            <feComposite in="shadowOffsetOuter1" in2="shadowInner" operator="out" result="shadowOffsetOuter1"></feComposite>
            <feGaussianBlur stdDeviation="2" in="shadowOffsetOuter1" result="shadowBlurOuter1"></feGaussianBlur>
            <feColorMatrix values="0 0 0 0 1   0 0 0 0 1   0 0 0 0 1  0 0 0 1 0" type="matrix" in="shadowBlurOuter1"></feColorMatrix>
        </filter>
    </defs>
    <g id="Page-1" stroke="none" stroke-width="1" fill="none" fill-rule="evenodd">
        <g id="tree-fig" transform="translate(30.000000, 30.000000)">
            <path d="M543.592917,1369.89912 L545.846513,1357.82366 L553.364941,1317.74727 L545.545157,1302.807 L542.454334,1287.7315 C542.454334,1287.7315 541,1286 542.454334,1276 C543.908667,1266 548.253492,1264.49237 548.253492,1264.49237 L558,1254.25152 L553.364941,1242.5707 C553.364941,1242.5707 550.378433,1226 561.246542,1226 C572.114651,1226 570.387653,1232 570.387653,1232 C570.387653,1232 574.208684,1242.62262 570.387653,1247 C569.672479,1247.8193 568.966218,1248.71726 568.290586,1249.63573 C567.789045,1250.31754 568.749486,1252.19025 568.290586,1252.87087 C567.831686,1253.5515 563,1258 563,1258 C563,1258 564.444662,1255.69617 566.54377,1254.25152 C569.031416,1252.53947 572.438201,1252.0341 575.448877,1258 C581,1269 583,1271 583,1282 C583,1293 578.458567,1297.881 578.458567,1297.881 L575.448877,1310 L587.488525,1372.0431 L597.399497,1372.29844 L599.881839,1371.26815 L653.0131,1350.00715 L666.07183,1336.04821 L662.938508,1277.0753 L674.536824,1239.96609 L686.436495,1219.73665 L691.590444,1197.14273 L693.267216,1170.38779 L698.115946,1152.86282 L691.590444,1120.39758 L675.494342,1077.33367 C660.90611,1080.38385 645.671175,1082 630,1082 C599.932302,1082 571.470517,1076.05053 546.101181,1065.43788 C533.698875,1146.11799 462.041818,1208 375.5,1208 C280.230881,1208 203,1133.0077 203,1040.5 C203,1037.44007 203.0845,1034.3993 203.251359,1031.37978 C174.523404,1005.97445 156,965.98252 156,921 C156,861.877637 187.999029,811.376473 233.109022,791.284402 C234.338806,761.923806 245.902434,735.258593 264.227107,714.891212 C249.990554,705.176503 241,690.906578 241,675 C241,657.90457 251.384678,642.699581 267.505554,633.008112 C263.894639,612.641883 262,591.57178 262,570 C262,482.554676 293.133475,403.353105 343.519486,345.864587 C341.234682,344.017544 340,342.046559 340,340 C340,334.739303 348.158178,329.977964 361.339829,326.537491 C355.9636,319.123023 353,311.006862 353,302.5 C353,267.429918 403.367966,239 465.5,239 C465.955693,239 466.410752,239.001529 466.865164,239.004579 C475.81393,207.080086 515.901236,183 564,183 C566.501189,183 568.980715,183.065115 571.435324,183.193063 C577.008597,171.244415 585.365804,161.844444 595.2979,156.605205 C607.961847,144.279397 623.59021,137 640.5,137 C665.087051,137 686.96497,152.38976 700.960236,176.305071 C712.653658,161.360027 729.400248,152 748,152 C761.098161,152 773.277313,156.641768 783.419923,164.606964 C786.349536,156.929846 790.895634,152 796,152 C804.836556,152 812,166.774603 812,185 C812,192.24735 810.86727,198.949038 808.947038,204.393032 C809.498154,206.417591 809.978793,208.479404 810.385549,210.574451 C830.219852,190.496395 858.109279,178 889,178 C937.332391,178 978.317462,208.591813 992.59762,250.950626 C997.649493,250.322815 1002.78922,250 1008,250 C1080.3493,250 1139,312.23242 1139,389 C1139,410.572528 1134.36852,430.997257 1126.10308,449.215753 C1156.02786,485.92895 1174.89615,536.493427 1175.95313,592.525963 C1188.22032,602.155552 1196,616.490981 1196,632.5 C1196,653.897078 1182.10236,672.304449 1162.16758,680.482185 C1160.72288,684.610594 1159.17367,688.669632 1157.52409,692.654156 C1159.37028,695.05411 1161.17327,697.48552 1162.93199,699.947373 C1178.52016,690.466887 1196.86536,685 1216.5,685 C1265.63447,685 1306.69421,719.234703 1316.68068,764.929936 C1325.1408,773.408436 1331.51923,782.577949 1335.44813,792.240551 C1345.90016,808.170847 1352,827.354812 1352,848 C1352,896.985381 1317.65896,937.744323 1272.32188,946.333253 C1278.58833,963.890877 1282,982.798205 1282,1002.5 C1282,1095.0077 1206.78384,1170 1114,1170 C1055.82138,1170 1004.54987,1140.51515 974.397666,1095.71535 C962.492599,1097.22206 950.34266,1098 938,1098 C898.093352,1098 860.201356,1089.8676 826.086746,1075.26472 L780.320267,1102.27376 L763.181649,1120.39758 L738.485968,1147.15638 L727.490362,1175.63446 L723.669331,1219.52802 L724.739529,1313.58952 L760.430816,1378.05637 L834.950577,1396.61291 L829.106791,1397.11355 L1023,1407 L960.690987,1454 L585.815451,1484 L414.2103,1420 L309,1351 L318.193133,1329 L414.2103,1353 L449.961373,1358 L503.077253,1371 L519.420601,1371 L541.892704,1370 L543.592917,1369.89912 Z M551.62221,1369.42272 L575.600858,1368 L578.341705,1369.07331 L577.678134,1362.29763 L575.448877,1339 C575.448877,1339 572.51242,1325.66699 568.401799,1322.48395 C564.291178,1319.30092 559.1641,1326.38998 559.1641,1326.38998 L555.810556,1347.91757 L551.62221,1369.42272 Z M708.954008,1376.18144 L709.100797,1376.20735 L709.018826,1376.12074 L708.954008,1376.18144 Z M679.821669,1076.38259 C679.689801,1076.41299 679.557878,1076.44328 679.4259,1076.47344 L679.885136,1076.52847 C679.863917,1076.47988 679.842761,1076.43125 679.821669,1076.38259 Z" id="Combined-Shape" stroke="#FFFFFF" fill="#FFFFFF"></path>
            <g id="Oval-30">
                <use fill="black" fill-opacity="1" filter="url(#filter-2)" xlink:href="#path-1"></use>
                <use stroke="#FFFFFF" stroke-width="59" xlink:href="#path-1"></use>
            </g>
        </g>
    </g>
</svg>